<svg xmlns="http://www.w3.org/2000/svg" viewBox="0 0 841.9 1190.6"><path fill-rule="evenodd" clip-rule="evenodd" d="M796.2 544.3l-1-.3-3.7 2.1-6.5.7-9.3-.7-3.2.9 2.8 2.6-2.4 4-7.6 5.4-4.4 5.5-1.2 5.7 1.2 5 3.6 4.4 5.2 2.8 6.9 1.3 1.4 1.7-4 2.2-7.1 1.2-10.2.3-10.3 2.4-10.5 4.5-6.1 4.1-1.7 3.6-.3 5.2 1.3 12.7-.8 4.9-4.5 9-5.9 11.8-7 7.4-1.3-1 1.1-3.6 5.8-11.8.9-5-.6-2.6-2-.3-2.3 2.3-2.6 4.8-.6 2.6 1.5.4-1.1 3.3-3.7 6.2-3.2 1.3-2.7-3.6.2-4.8 4.4-9.6-1.6-1.9 2.6-5.9 1.1-4.3-1.3-4.5 1-4.1 3.4-3.8-1-1.1-5.5 1.5-7.9 7-10.3 12.6-8 5.5-5.7-1.6-4.6 1-3.5 3.7-3.8 1.8-4.1-.1-2.5 4.4-.9 8.8-4.1 5-12 3-2.4 2.3-.2 3.3 1.9 4.2.1 8.5-1.8 12.8-4 11.2-6.2 9.6-6.8 7.9-11.2 10.4-.2 2.1 5.5 8.1 2.3 6 1.1 12.1-.3 2-10.8 14.9-.2 2.1 11.6 24.9 10.3 17.9 1.2 1.9 3.1 7.2 5.7 14 2.9 13.9.2 13.8-1.4 13.3-2.9 12.9-4.3 12.3-5.7 11.7-5.5 9.4-12.2 15.3-6 10.2-6.2 8.3-6.4 6.3-11.6 7-29.7 12.9-9.3 2.5-10.2.9-11.2-.6-6.1-1.4-1.4-2.4-2.4-.2-3.2-1.6-4.1-2.7-4.5-4.9-4.9-10.1-5.3-15.3-4.7-9.1-4.1-2.9-3.7-4.6-3.3-6.2-1.6-14 .1-21.9 1.1-14.9 2.2-7.9-.6-6-3.4-4.2-2.1-5.2-.8-6.2-1.8-4.2-2.8-2.2-.6-3.1 1.6-4v-2.7l-1.5-1.5-.4-2.2.8-2.9-1.4-8.7.4-5.3 1.9-5.8 6.2-10.4 2-5.1.5-5.2 2.9-6.6 8.1-13.5.2-3.1-2.8-6.1-.7-4.6.6-6.1 2.6-7.5 4.5-8.9 6-7.1 7.4-5.3 2.4-6.1-2.6-6.8.9-10 4.4-13.3 4.9-10 5.5-6.6 3.7-6.3 2-6-.9-2.7-4.1-2.9-4-4.2-6.6-.9-8.1 2.8-1.2-.2-4.2.4-7.8 6.1-7 10.6-5.1 4.4-6.9 3-5.1 3.3-3.3 3.7-4.4.8-5.4-2.1-1-5.1 3.3-8.1 5-7.7 10.3-12.6.3-3 2.5-3.7 15.9-5.4 6.1-4.3 2.1-5.5.6-8.1 1-2.3 2.3-1 7-6.7 11.7-12.5 10.5-12.9 9.3-13.3 6.8-7.5 4.3-1.7 3.2-4 4.9-12.4 3.7-5.7 2.5-2.2 1.2 1.3-2.4 6.8v5.7l2 7.2 3.9 2.5 5.9-2.2 5-4.8 4.2-7.3 4.9-3 5.5 1.2 4.6-.5 3.6-2.2 6.9-1.1 1.3 2.8-.8 5.5-2.2 2.7-3.5-.2-4 2.9-4.5 6 .2 4.8 4.9 3.6 2.4.2V560l2.3-3.2 7.3-5.9.7-1.9 13.9-5.1 5.2-3.3 1.4-3.8 7.2-7.7 6.8-2.5 9.3-1 9 .7 8.7 2.4 4.9-.1 1.2-2.5 7.4-1.7 13.7-.9 10.1-3.6 6.5-6.3 8.3-3.2 10.1-.1 13.7 2.2 17.3 4.6 14 6.2 18.4 12.4 4.9 1.3-.7 7.3zm-79 3.5l-5-1.6-3.7 4.1-3.8 8.9-.5 5.1 2.8 1.3 3.7-.6 4.6-2.4 1.8-4.2-1-9.5 1.1-1.1zm-60.7 65.4l-.8 1 2.3 4.8 2.4 1.5 3 .1 1.3-1.5-.4-3.2-2-2-5.8-.7zm-94.7-28l-1.3-1.2-3.1 6.2 2.1 2.4 6 .4 3.3-1.1.6-4.6-.6-1.5-1.8-.6h-5.2zm-13.3 12.2l-4.2 2.6-3.7 5.9-4.8 3.8-5.9 1.7-4.1 3.9-2.2 6.1-3.9 5.5-8.8 8.3-.7 2.3.5 3.2 1.8 4.2 3 2.8 4.2 1.3 3.9-.9 10-9.4.9-2.1-1.3-1 1.4-3.6 4-6.2 3-3 1.9.2 2-1.2 2.1-2.6-.3-2.4-2.6-2.2.2-.9 3 .4 1.1-2.3-.8-5 1.3-2 3.4.9 2-1.4.6-3.7-2.1-2.2-4.9-1zM832 465.2l9.6-1-1.5 2.9-3.1.3-4 1.3-4.7 2.9-6.6 3-6.8-.8-4.7-4.2-6.8-.9-8.8 2.4-7.8-.1-6.8-2.7-13-1.3-1.6-2 .3-2.1 2-2.2 1.2-5.2.2-8.2 1.8-5.8 3.3-3.4-5.1-1.4-13.4.6-15.4 2.8-17.4 5-18.9 1.7-20.4-1.5-15.4.2-17.1 2.5-3-.8-10.8 3.3-18.6 7.4-13.9 6.9-11.5 7.7-1.8.1-2.7-1.7-5.8-2.4-6.2-.1-6.6 2.2-6.7-1.4-6.8-5.1-6.2-1.4-5.6 2.2-9.2 1-20.7-.9-2.1-1.6-1.8-5.5-2.2-2.4-3.9-1.7-6.3-6.1-13.9-15.5-3.8-1.8-11.3-4.8-10.8-2.1-27.3-3-5.9-2.1-3.5.4-18.1 8.4-.8 1.8-1.1 1.8-3 2.9-2.4 1.3-1.5-1.4-1.4-2.4.3-5.4 1.9-8.3-1.1-5.4-4.2-2.5-1.8-3 .6-3.5-3-2.8-6.6-2.1-3.1-2.8.5-3.4-.6-2.3-1.8-1.3-7.1 2.7-12.4 6.6-8.4 5.9-4.4 5.2-6.6 3-8.8.7-7 2.2-12.4 7.6-9.3 3.9-15.4 2.9-21.5 1.8-17.9 5-14.4 8.1-17.4 6.9-20.3 5.6-13.8 2-7.3-1.7-8.7-3.5-13-6.2-1.9.6 1 1.3-.3 1.1-2.4 1.8-16.6 4.6-2.2-1.7 6.2-6.3 2.4-4.7-.2-4.3 2.8-5.3 5.7-6.3 2.1-4.3-1.5-2.2-6.3-3.7-5.1-.3-6.4 1.2-19.6 9.3-2-.7-6.3-1.5-1.5.3-15.1 8-15.4 4.8-36.5 6.9-9.2.8-7.2-.5-9.3-4-3.7-2.8.3-3L5 433l45.5-25 28.1-17.8 46.5-33.5 12-6.7 27-11.1 43.4-10.7 21.4-5.9 18.5-6.5 11.8-5 5.1-3.5 4.1-1.6 3.2.2 6.2-2.3 10.6-8.6 1.2-.7 10.1-2.4 3.3-4.1 2-4.9 4.8-8.2 3.3-3.4.8-3.7-1.7-4 .5-3.8 2.6-3.6 12.4-5.1 33.8-9.3 1.2 1.2-5.9 7.1-6.3 13.5-2.2.4-2 1.7-1.8 3 4.8-.2 11.4-3.4 5.3-1.7 1.3-3.3 1.8-6.7 2.4-3.7 3.1-.7 2.1-3.2 1-5.7 2.5-3.4 4-1.1 1.7-2-.3-2.8 1-7.5.8-3.5 3.5-5.1 4.9-1.6 6.8.3 4.6 2.6 2.5 4.9.7 4-1.2 3.2-6.5 5.8-18.7 14-2 3.9 1.6 2 1.1 2.9 2.2.4 4.1-2.6 1.8-2.3-.5-2 1.5-2.6 3.5-3.2 2.7-1 2 1.3 3.3-.6 4.7-2.4 8.4-1.2 1.6-.1 10.3-9.3 3.2-5.4V221l-4.2-4.9-8.4-5-2.4-5.4-.2-2.7-1.6-3.4 1.7-1.3 5.1.9 4.3-.5 3.5-1.8 6.3-.4 5.1.3 6.2 4.3 22.2 4.2 8.2 2.2 10.1 2.3 2.6.8 1.7 2.5 3.8 1.1 5.8-.4 6.1.8 10.4 3.8 9.5 2.6 15.1-.3 8.3-1.1 13.1 1.8h7.3l7.4-3 6.4-.8 5.4 1.4 2.3 1.9 4.4 2.7 13.2-1.3 2.9.7 3.9 2.9.6 1.9 2.1 2.9 5 5.5 1.2 1.9 3.4 2.3 2.8 5.4 2.1 8.4 2.4 5.2 2.6 1.9 1.1 2.2 2.4 8.8 5.9 10.1 8.9 9.9 11.8 9.7 14.7 6.4 17.7 3.2 15.7.7 13.8-1.8 18.3-.9 22.8-.1 11.8 1.1.8 2.4-2.2 3.4-5.2 4.5-.6 3-.2 3.8-4.2 5.1-2.2 3.1.7 2.1-1.2 2.8-3.1 3.6 1.8 4.8 6.7 6 8.2 4.8 9.7 3.7 6 3.8 2.4 3.9 2.7 2.2 3 .4 2.7 1.8 2.4 3.3-2.6 5.7-7.6 8.2-3.4 5.3.8 2.4-6.4 9-.4 3.5 2.7 2.5 10.3 3.5 3.3 2.9 2.7.4 2-2 4.1-.9 6.1.2 5.8 1.4 5.4 2.7 1.9 2.8-1.6 2.9-2.8 1-8.3-.4-4.7 1.5-2.8 3.1-.8 8.2 2.3 3.5h1.3l1.9-1.7 2.4-3.3 2.6-.4 2.8 2.6-3 5.3-8.8 8-2.3 2.5v3.6l7.4 6.5 2.7-.6 1.8-1.6 2.9-2.2zm-685.2-47.9l-1.1 1.5.6 1.5 4.1 1.8 1.6-.8-.6-1.5-2.7-2.2-1.9-.3zm11.1 14.8l7-3-.8-1.5-2.5-.1-14.4 6.1-3.2 2.4-1 2 2.6.3 6.2-1.5 3.3-1.6.3-1.7 2.5-1.4zm11.6-9.9l1.3-3.8-.8-.9-3.6.6-8.1 2.2-.1 1.6 7.8.9 3.5-.6zm14.8-13.5v-2.2l-1.3-.8-2.7.5-1.8 1.9-.9 3.3 1.3.8 3.5-1.7 1.9-1.8zm255-194.3l-3.2 3.1 1.2 7.3 2.1 2.6 2.8-.1 3.5-2.8 6.2-1.5 8.9-.2 4.7-1 .4-1.9 3.3-1.1 1.3-1.7.6-3.3-5.2-1.9-11-.6-8.8.8-6.8 2.3zM346.7 312l31-11.5 3.4-3.2-.4-1.7 1.7-2.5 10.4-6.1-1.6-.9-9.7 1.9-18.1 6-42.4 16.3-5 2.6-.8 1.3h3.4v1.6l-3.3 3.2.4 2.2 4.2 1.2 8.1-1.1 12.1-3.3 4.3-1.6.7-.9-3.9-.5.5-1.8 5-1.2zm121.4 56.9l5.4-2.4-5.7-3.6-9.2-1.8H446l-12.6 1.3-22.8 5.6-8 3.5-18.1 12.5-5.1 6-.7 4.7 4.6 3.3 15.1 2.3.8-1.5-.7-.7-2.2-.9 4-4.3 1.2 1.7-.4 4.8-3.2 3.5-3.3 2.4v3.2l3.2 4 4-.9 4.8-5.9 13.2-9.3-.4-2.1 2-3.5 22.4-11.9 4.4-3.7-.9-1.4-4.8-2 .7-.7 24.9-2.2zM479 223.8l7.4-.7-.5-2.6-4.4-4.4-3.8-2.2-3.2.1-1.8.6-.5 1.1 2.3 3.3.1 1.7-1.5 1.5 1.4 1 4.5.6zM704.9 333l1.1-1.6-4.9-2.7-13.4-2.7-6.8.2-6 1.5-5.2 2.7-2.1 2.1.9 1.5 9.1 1.6 20.9-1.5 6.4-1.1z"/></svg>