<svg xmlns="http://www.w3.org/2000/svg" viewBox="0 0 841.9 1190.6"><path fill="#ECEFF1" d="M352.6 330.1c1 1.5 1.9 2.4 3.8 3.8-1.8.8-14.3 3.3-7.6 5.7.1.6-.6 1.7-1 1h1c-.8-.2-1.2.1-1 1v-1 1c-3.8-2.5-7.1 3.9-11.5 3.8h1-1c1.3-.3 1.3-.6 0-1 .1-2.5 1.2-1.8 2.9-3.8.5-.6 3.2-3.4 3.8-3.8 3.4-2.3 5.9-4.8 9.6-6.7M359.3 318.6c1.1-.3 1.9-.2 1.9 1v-1c-.4 2.1-.9 3.3-1.9 4.8.4-.1-.1-1.2-1-1 .1 1.3-.1 2.6 0 3.8h-1c-.3-1.9-.5-1.5-1-2.9-2.3 1.5-2.8 1.9-4.3 1.9-1.8 0-4.1-1.9-2.9-1.9-.6 0 3.9-2.7 4.3-2.9 1.4-.5 4.6-1.2 5.9-1.8M369.8 304.3c.7.2.5 1.3 1.9 0 .3 1.2-.3.7-1 1 1.7 2-1.2 3.2 0 4.8h-1c1.1 1.4-.7 3-1.9 4.8v-1c-.6.4-2.3 1.5-2.9 1.9.8-4 .3-10.1 3.8-11.5v1c0-.9.3-1.2 1.1-1M584.8 618.7v-1 1M587.7 616.8V615.9v.9M587.7 615.8c-.8.2-1.2-.1-1-1-.2.9.2 1.2 1 1M585.8 613.9v1-1M585.8 611h-1 1c-1.3-.3-1.3-.6 0-1h-1c.9-.1 1.2.2 1 1M643.1 536.5c1.3 1.3-.1 4 1 6.7-2.8-.6-4.9-2.9-2.9-5.7.8 1.6 1.5.7 1.9-1M675.6 535.5v1-1M675.6 534.6v-1 1M676.6 529.8v1-1M665.1 555.6h1-1M666.1 555.6h-1 1-1 1M621.1 554.7h1-1M621.1 554.7v-1 1M678.5 511.7c2.4-1.1 5.2-2.7 7.6-1-.5.5-1.3-.4-1 1 1.4.3.5-.5 1-1 1.8 2.6-1.7 8.7-2.9 9.6h1c-1-1-2.1-1.4-2.9 0-.5-2.5-1.8-3.1-2.9-2.9v1-1c-.1.9 0 1.9 0 2.9-3.2-1.3-1.3-8.6 0-11.5 1.1 1 1.1 1.8.1 2.9"/><path fill="#ECEFF1" d="M586.7 614.9c-.8.2-1.2-.1-1-1-.1.9.2 1.2 1 1M627.8 582.4h-1 1M627.8 582.4h-1 1M628.8 580.5h-1 1M601.1 579.5h-1 1M608.7 569h-1 1M608.7 569v-1 1M617.3 567.1h-1 1M616.4 567.1v-1 1M647.9 556.6h-1 1M338.3 351.1h1-1 1-1M356.4 309.1c1.3 2.4 2.9 4.4 0 5.7-.3-3-1-4.4 0-5.7M349.8 309.1l1 1c-1 .5-.9.5-1.9 1-.6-1.8.3-1.4.9-2M349.8 307.2c-2 .5-2.9 2-2.9 4.8-2.1-.8-1.9-1.6-1-3.8 1.7 1.1 2.3.3 3.9-1M354.5 307.2v-2.9 2.9M654.6 540.3h1-1M352.6 312.9c.5 1.6 1.4 2.2-1 2.9.5-1.7-.5-1.3-1-1.9 1.1-.6 1-.5 2-1M621.1 553.7v1-1M646 550.8c-.5-.5-1.3.4-1-1 1.4-.3.5.6 1 1M669.9 550.8h-1c.8.2 1.2-.1 1-1v1M669.9 549.9h-1 1M345 312.9c1.5 0 2.1.2 2.9 1-1.2 1.1-2.5 1.9-3.8 2.9-.2-2.2.2-2.7.9-3.9M340.2 310c4.7 6-6.7 2.5 0 0M345.9 304.3c-.5.5.4 1.3-1 1-.3-1.5.5-.5 1-1M342.1 304.3c.2.5 1.4.2 1 1.9h-1c0-.5.2-1.5 0-1.9M611.6 568h-1 1"/><path fill="#ECEFF1" d="M330.6 318.6c2.9.7 2.6 4.6 4.8 2.9v1-1c.3 1.3.6 1.3 1 0 .6 1.4 1.3 3.4 1.9 4.8.5-.2-.5-1.3 1-1 2.3 4-3.5 10.5-5.7 13.4-3.5 4.5-6.5 7.9-1.9 13.4-1.1 1.4-2.1 3-3.8 3.8h1c-4.8.4-2.4 7.4-6.7 8.6.6 1.5 2.1 2.2 4.8 1.9h-1 1.9c.3-1.2-.3-.7-1-1 1.1.3 1.9.2 1.9-1v1c3.7-3.1 8.9-4.4 12.4-7.6-1.4-.5-2.4-1.1-1-1.9h-1c1.8-.4 3.3-.2 3.8 1v-1c-.2.8.1 1.2 1 1h-1c1.1-1.5-2.5-3.6-3.8-5.7 1.5 2.6 11.5 12.4 12.9 12.4.5 0 7.2 5.1 7.2 3.3 0-2 7.4 3.1 7.6 3.3v-1 1-1c1.6-.2 4.4 3.9 6.7 3.8v-1l1 1c-.2-.8.1-1.2 1-1-.3-.5-1.3.5-1-1 2 .1 2.8.8 3.8 1.9v-1c-.4 1.4-.3 2.6-1 3.8 1.3.3.6-.4 1-1 1.6-.3 4.2 2.2 6.7 2.9l1-1c.5 2.8 3.3 3.9 1.9 5.7 1.1-.3 1.9-.2 1.9 1v-1 2.9c1.3.3.6-.3 1-1-.4 1.5-.2 2.6 1 2.9h-1c1.2.3 1.3 1.4 1 2.9v-1c1.2 2.3 2.2 4.8 3.8 6.7-2.4 2.3 21.1 8.4 25.5 9.3 8.9 1.8 17.2 7.9 27 7.9 3.7 0 18.1 2.8 20.5 5.3 3.4 3.4 12.6 2.5 16.7 4.3 7.4 3.1 19.6 10.3 23.9 15.3 1-1.1 1.8-1.8 3.8-1.9-.1 1-.5 1.1-1 1.9.3 0 1.7-.2 1.9 0 .3-1.2-1-.9-1-1 1.3 1.2 2.3.9 2.9-1 1.7 2.8 7.5.4 6.7 5.7v-1c-.2.8.1 1.2 1 1h-1c.8.2 1.2-.1 1-1 .3 1.3.6 1.3 1 0 .7.6 1.7 1 1.9 1 .3-1.3.6-1.3 1 0-.1-5 4-3.1 7.6-4.8h-1c2.5.1 3.8 1.5 3.8 3.3 0-.4 4.5.5 5.3.5.3 0 3.3.7 4.3 1 1 .3 2.7-1.1 3.8 1.9.3-1.5 1.2-.7 1.9 0-1.3.3-1.3.6 0 1h-1c.8.2 1.2-.1 1-1 1.6 2.5 4.2 1.3 6.7 0 .7 1.9 1.9 2.5 3.8 2.9.1-.6-.1-1.3 0-1.9 4.6 2.3 9.4 3.3 9.6 7.6-1.2 1.4 0 1.9 2.9 1.9-1.8 1.9-8.8 8.8-2.9 9.6.4 1.5-.7.5-1 1 2.4 1.8 13.7-.7 10.5 2.9 2.1 1.4 4.2 2.6 5.7 1 .3 1.3.6 1.3 1 0 .3 1.3.6 1.3 1 0 1.8.2 4.8 2.2 4.8 4.3 0 2.6 6.2.4 3.8 3.3 4.2 1.5 1 2.9 1 3.8-.2 3.1-1.6.9 0 4.8.8 1.9 3.7 2.4 2.9 5.7-.6 2.2-2.6 3.9-4.8 1.9 3 5.9 4.3 9 1 13.4-1.6 2.1-2.7 3.8-2.9 4.8-.6 2.7 2.6 4.8-1.9 5.7.7 2 .7 2-1 3.8.1-.1 1.7-.1 1.9 0-.5-.7-.9-1-1-1.9h1c1 2 1.2 1.7 1.9 3.8.9-2.6 3.9-1.9 7.2-1.9 2.7 0 3-3.2 5.3-3.8 6.8-2 3.9 6.2 4.8 7.6-1 .5-.9.5-1.9 1 .5.5 1.3-.4 1 1-1.4.3-.5-.5-1-1-1.5 3.4-2.5 12.6-5.7 14.3 1.2 3.3 6.7 6.2 6.7 9.1 0 4.3 8.9 1.2 8.6 7.2v-1 1c-1.4-3.9-3.2-.2-3.8 1.9-.8 2.6 0 6.8 0 9.6-.5-.2-.2-1.4-1.9-1v1c.5 0 1.5-.2 1.9 0-2.4 1-7.7.3-9.6 1.9v-1c-1.1.7-16 6.7-7.6 9.6-1.3.3-1.3.6 0 1-2.8 2.4-3.7 6.2-6.7 8.6v-1 1.9-1 1-1 1-1c-.3 1.3-.6 1.3-1 0-.2.8.1 1.2 1 1-1.7 1-2.3 4.7-2.9 6.7v-1c-.5 1-.5.9-1 1.9.4-.3-.2-1.6 1 0-4.6 2.4-6 8.1-3.8 13.4-.8-.9-1.1-2-1-3.8-.7.8-.9 1.4-1 2.9v-1 2.9-1c-.5 1-.5.9-1 1.9v-1c-.4 1.5-.2 2.6 1 2.9h-1 1-1 1c-1.4 3.3-5.2 7.8-1 9.6h-1 1-1c6.4 4.4 9.2.7 11.5-3.8-.6 0-1.3.1-1.9 0 2.3-1.4 4-5.7 7.2-5.7.6 0 7.5-4 8.1-4.8l-1-1c3.5-1.7 3.3-14.3 7.2-14.3 1 0 4.3-5.8 4.3-7.2 0-2 6.2-3.3 6.7-3.3-.8 1.2-1.1 2.6-1.9 3.8 1.4.4.4-.6 1-1 1.4 1.1 2.2-1.1 2.9-2.9h-1c.8-.2 1.2.1 1 1v-1c1.6.9 1.8.1 1-1.9.9.4 1.2.4 1.9 1-.4.5-1.3-.5-1 1 1.7.5 1.3-.5 1.9-1v1c.5-1 .5-.9 1-1.9v1c1.2-1.9 2.8-4.6 4.8-2.9v-1c-.3 0-.6 1.2-1.9 0 0 .6.1 1.3 0 1.9.3-1.3.6-1.3 1 0v-1c1.6 1.7 3.3 6.9 4.8 5.7v1.9-1c1.5 1.3 3.6 1.7 5.3 3.3 2.5 2.5-1.4 5.6-1.4 6.7 0 2.5-2.9 12.9-4.3 12.9-.7 0-5.9 9.4-6.2 10.5-1 3.3-3 11.7-1.9 13.4-2.8 6-4.8 16.7-3.8 22 .6 3.4 3.3 5.3 2.9 10.5-.4 4.9-2.9 5.5-4.8 8.6v-1c-2.8 2.3-6.8 3.3-7.6 7.6v-1c.7 5-1.6 7.9-2.9 12.4-1 3.6-1.9 6.5-2.9 10.5-1.9 7.5 1.7 16.4 2.9 20.1-1.3.3-1.3.6 0 1-2 2.2-.5 8.5-1.9 11.5-1.2 2.5-5.7 8.7-5.7 11 0 2.7.5 13.9-1.4 13.9-.7 0-5.1 9.1-5.3 10.5v-1c-3.6 5.5-3.1 17.4-1.9 22 1.1 4.5-.6 6.9 0 11.5.5 3.9 4.3 5 1.9 9.6-1.4.4-.4-.5-1-1-.2.8.1 1.2 1 1-2 .8-2.5 2.3-1 3.8h-1 1c-1.4 3.4 4.8 4.2 4.8 7.2 0 3.4-.1 8.5 0 9.1 1.2 6.4 3.9 10.5 8.6 13.4-.8-.2-1.2.1-1 1v-1c-1.9 3.7-1 4.2-1 9.1 0 2.2-3.5 5.3-3.8 9.1-.4 4.3 1 6.3 1 11 0 5.9 2.5 5.9-2.9 7.2-7.1 1.7-16.6.5-22.9 1-7.9.6-16 0-23.9 0-30.3 0-62.9 1-94.6 1-31.1 0-62.4-1-94.6-1h-25.8c3.2-3.6-3.8-8.1-3.8-11 0-6.2-3.7-5.8-8.6-7.2-4.8-1.4-22-8.6-22-8.6-.6-2.6-4.8-2.9-4.8-5.3 0-1.6-1-4.2-1-7.6 0-8.4-3.8-9.7-6.7-15.8 2.5-4.4-1.9-15.8-1.9-23.4 0-2.6 13.4-16 9.6-16.7 4.5-6.1-9.6-8.9-11.5-11.5-1.2-1.7 0-5.8 0-8.1 0-2-1.3-3.7-2.4-4.8-1.4-1.4 1.6-2.2 1.4-4.3-.2-2.2-2.4-8.6-2.4-8.6 4.9 0-2.4-7.6-2.4-7.6-.9-2.1 0-6.5 0-10 0-2 1.7-3.7 1.9-8.1.2-3.8-2.2-12.9-5.7-17.2-1.6-1.9-3.2-5.1-5.3-7.2-2-2-3.3-5.7-5.3-7.2-5.1-3.9-12.9-2.3-17.2-6.7-1.3-1.3-3.9-5.7-6.2-5.7-1.6 0-1.1-3.8-1.9-3.8-.1 0-4.4-1.4-5.3-1.9-1.2-.7-6.7-4.9-6.7-6.2 0 1-3.2-3.3-2.4-3.3-2.9 0 .1-3.7-.5-4.8-1.7-3.7-2.9-3.7-2.9-8.1 0-2.9-3.8-4.8-5.7-6.2-5.9-4.2-9.6-6.1-17.2-8.6-7.9-2.6-8.9-6.3-12.4-12.4-2.8-4.9-3.8-4.1-8.6-4.8-2.9-.4-8.9-2.6-12.4-1 .5-5.2-5.7-4.4-5.7-6.2 0-2.8-1.3-3.8-3.8-6.2-1.5-1.4-4.6-6.7-6.2-6.7-.7 0-7.1-4.2-7.2-4.8-.6-3.3 3.8-6.2 3.8-9.1 0-1.8-.3-8.4 0-10 0 .2 2.9-3.7 2.9-3.8.2-2.2-1.9-4.3-1.9-5.3 0-5.3-.4-6-1-9.1-.4-2.6-2.9-1.9.5-5.3 1.5-1.5 2.8-2.2 4.3-3.3-1.2-2.3-1.3-3.6-1.9-5.7-.2-.6-1-3-1-4.3 0-1.5 3.5-8.4 1.4-10.5-.9-.9 9.6-15 11-16.7-.6-2.2-3.8-7.2-3.8-8.1 0 .1-2-4.3-2.4-4.3-2.7 0-.3-3.5-.5-3.8-4.2-7.1-13.9 1.1-14.3-9.6-.1-1.8.7-10.5 1.4-10.5 1.5 0-.9-3.8 1.9-3.8.8 0 3.3-1.9 4.3-2.9 5.1-4.7 2.9-10.3 6.7-15.3 1.3-1.7 5.7-6.7 8.1-6.7 1.5 0 3.4-1.9 5.7-1.9 1.5 0 4-3.8 3.8-3.8.3 0 3.3-.7 4.3-1-.8.2 1.9 1.4 2.9 1 0 0 .7-2.7 1-2.9 1.9-1.6.4-3.3 3.8-3.8 1.6-.2 3.1 1.9 5.7 1.9.4-1.5-.7-.5-1-1 .3-.3 3.8-6.6 3.8-6.2 0 .1 1.8-4.5 1.9-7.2.2-5.2.3-10.2.9-15.4.9-7.9-.4-15.9.1-23.8.4-7-1.6-24.3 1.9-29.6 1.3 8.2 12.8-2.2 6.7-2.9v-1c1.5-1.8 3.4-2.4 5.7-1-1.9-11.3 11.9 2.9 13.9 2.9-.4 0 5.3 3.7 5.3 1.4 0-1.5 5.3-.1 4.8-.5v-1 1c.3-1.3.6-1.3 1 0v-1c2.3 2 31.5-8.6 31.5-8.1 0-2 14.3-2.9 14.3-6.7 0-2.1 7.6-.5 7.6-2.9s4.3-4 5.7-5.3c-2 1.8-2.1 5 1 5.7.8-2.4 1.1-1.5 1.9-3.8h1c1.1 3.5 4.4 1.7 3.8-1.9.4.6-.1 1.4 1 0 1.7 1.5 8.6-3.7 8.6-5.3-.1 1.2 9.5-2.9 10.4-3.8"/><path fill="#ECEFF1" d="M342.1 319.6c2.1.6 3 2.3 3.8 3.8h-1 1-1c.7.3 1.3-.3 1 1-1.7-.5-1.3.6-1.9 1-.3-1.3-.6-1.3-1 0v-1c-2 1.8-5.9-5.2-.9-4.8M315.4 320.5v1-1M349.8 316.7c1.4 1.7-.9 3-2.9 3.8.2-2.1 1.2-3.2 2.9-3.8M337.3 316.7c0 1.1-.8 1.3-1.9 1 1-.5.9-.5 1.9-1M329.7 315.8c.4.2 1.5 0 1.9 0v1c-1.5-.3-1.1-1.2-1.9-1.9v.9M629.7 556.6h1-1.9.9M324 313.8l1.9 1.9c-1 .5-.9.5-1.9 1 1.4 2.3-7.7 1.4 0-2.9M346.9 327.2c-.2.8.1 1.2 1 1-1.3.5-1.6 1.1-3.8 1v-1c1.8-.1 1.4-.5 2.8-1M365 329.1c-1.1 1.6-2.5 2-4.8 1 1.6-.7 4.1-2.4 5.7-2.9-.4.9-.3 1.1-.9 1.9M671.8 525c6.1-.4 1.8 3.8 3.8 6.7v-1c-.7 1.2-1.6 2 0 2.9-1.4 1-.7.6 0 1-.8-.2-1.2.1-1 1-.5 0-.5-1.3-1.9 0-.5-3.5-2.7-2.9-1.9-1h-1c-.6-.9 1.2 10.2 1 10.5-.1.1-9-2.1-1.9 2.9v-1c.6 2.2.8 2.9 1 4.8.7-.5-.4-1.1-1-1-.1.6 0 1.3 0 1.9-2.7-3.2-4.8-1.3-1.9 1.9v-1c0 1.5-.2 2.1-1 2.9.3-1.1.2-1.9-1-1.9h1-1 1-1 1-1 1c-4.5-3.5-1.9 7.6-6.2 7.6-3 0-1.5 10.5-1.4 10.5v-1c-3.7 1.8-1.9 3.4-1.9 6.2 0 1.9-3.7 3.1-4.8 4.3-1.3 1.5-7 12.2-7.6 2.9-.9.8-2.3.2-3.8-1h1-1 1-1c.5-.5 1.3.4 1-1-1.4-.3-.5.5-1 1-.2-.8.1-1.2 1-1h-1 1c-1.3-.3-1.3-.6 0-1h-1c.8-1.3-.8-4.4-1-6.7 0-.8 1.9-4.8 1.9-6.2 0-4.3 3.7-11.4 6.7-12.9h-1 1-1c1 .5.9.5 1.9 1h-1c1-2.7 2-8.7 3.8-11.5.5.5-.4 1.3 1 1 .3-1.4-.5-.5-1-1 .9-.9.5-1.7 1-4.8 1.5.3 4.5 3.4 5.7 2.9.2-.1 0-3.9 0-4.3 0-.5 2.6-.9 2.9-1.4-.4.9 4.3-1.9 1.4-1.9-2 0 .6-3.3.5-2.9 1.1-3-.1-5.2 3.8-2.9h-1c1-1 .3-2.2 1-5.7 1.7 2.2 3.3 2.2 4.9.2M676.6 522.2c.8.8 1.6.4 1.9 1.9-2.6.6-1.2-.7-1.9-1.9M679.4 520.3c.8.2 1.2-.1 1-1 .7 2.5 1.2 3.2 1.9 5.7v-1c-.5.5.4 1.3-1 1-.3-1.4.5-.5 1-1-1.5-1.3-2.2-2.5-2.9-4.8v1.1M678.5 518.3h1-1M678.5 518.3h1-1M679.4 518.3v-1 1M688 507.8c2.2 1.2 2.9 2.8-1 2.9 1.2-.3 1.4-1.4 1-2.9M339.2 351.1h-1 1M338.3 351.1v-1 1M335.4 348.3c2.1.3 3.3 1.1 3.8 2.9-1.4.4-.4-.6-1-1v1c.1-2.4-1.2-3.3-3.8-2.9h1M342.1 330.1c1.4 2.1-.5 4.7-2.9 5.7 0-3 .9-4.7 2.9-5.7"/></svg>