<?xml version="1.0" standalone="no"?>
<!DOCTYPE svg PUBLIC "-//W3C//DTD SVG 20010904//EN"
 "http://www.w3.org/TR/2001/REC-SVG-20010904/DTD/svg10.dtd">
<svg version="1.0" xmlns="http://www.w3.org/2000/svg"
 width="16.000000pt" height="16.000000pt" viewBox="0 0 16.000000 16.000000"
 preserveAspectRatio="xMidYMid meet">
<metadata>
Created by potrace 1.11, written by Peter Selinger 2001-2013
</metadata>
<g transform="translate(0.000000,16.000000) scale(0.000593,-0.000593)"
fill="#000000" stroke="none">
<path d="M11289 25585 c-63 -70 -70 -88 -94 -235 -4 -19 -10 -53 -15 -75 -5
-22 -10 -57 -10 -79 0 -34 2 -37 16 -26 8 8 31 14 51 16 20 1 39 8 44 16 7 11
9 10 9 -1 0 -28 103 131 106 163 3 47 14 117 24 156 23 96 23 90 -10 84 -22
-5 -31 -2 -36 10 -10 26 -47 14 -85 -29z"/>
<path d="M10210 25611 c0 -20 20 -61 30 -61 14 0 13 43 -2 58 -14 14 -28 16
-28 3z"/>
<path d="M10440 25476 c-67 -27 -100 -69 -95 -123 4 -38 17 -53 52 -53 16 0
23 8 28 33 14 72 38 128 62 147 32 25 23 24 -47 -4z"/>
<path d="M10518 25423 c-19 -5 -33 -37 -23 -53 3 -5 15 -10 25 -10 45 0 71 29
28 31 l-23 0 23 9 c41 17 18 34 -30 23z"/>
<path d="M10794 25408 c-12 -18 -7 -122 6 -163 15 -45 46 -68 73 -54 26 15 19
63 -24 157 -34 73 -42 82 -55 60z"/>
<path d="M10083 25378 c-21 -10 -41 -50 -37 -75 1 -7 2 -20 3 -28 4 -47 94
-75 117 -37 16 24 9 85 -12 121 -19 33 -35 37 -71 19z"/>
<path d="M10309 25229 c-10 -21 -19 -48 -19 -59 0 -28 18 -60 33 -60 11 0 127
112 127 123 0 8 -83 36 -103 35 -11 -1 -27 -18 -38 -39z"/>
<path d="M10612 25246 l-43 -22 34 -39 c46 -53 67 -45 62 25 -1 28 -5 53 -7
55 -1 2 -22 -7 -46 -19z"/>
<path d="M9405 25187 c-103 -87 -122 -116 -79 -124 41 -7 174 -7 181 1 4 4 -2
16 -15 26 l-23 19 36 18 35 19 -42 41 -43 42 -50 -42z"/>
<path d="M9690 25167 c0 -10 5 -17 10 -17 6 0 20 -9 32 -20 12 -10 25 -17 30
-14 11 7 -10 34 -25 34 -6 0 -19 7 -29 17 -17 15 -18 15 -18 0z"/>
<path d="M9978 25089 c-46 -23 -47 -29 -8 -29 19 0 33 7 40 21 16 29 11 30
-32 8z"/>
<path d="M10486 25078 c-39 -32 -76 -95 -69 -115 11 -31 67 5 146 95 18 20 18
21 -11 36 -28 14 -30 14 -66 -16z"/>
<path d="M10940 25030 c-14 -9 -90 -34 -240 -79 -179 -53 -235 -105 -199 -184
26 -57 87 -53 229 15 46 22 86 36 87 32 2 -5 14 -29 26 -53 33 -65 47 -64 48
3 1 31 3 61 4 66 1 6 3 15 4 22 0 7 7 4 14 -6 8 -11 19 -17 26 -15 14 5 72
135 63 143 -3 4 0 6 6 6 15 0 4 31 -16 48 -19 14 -32 15 -52 2z"/>
<path d="M9685 25003 c-22 -14 -68 -52 -102 -85 -34 -32 -68 -58 -76 -58 -8 0
-45 12 -83 26 -38 14 -77 23 -90 20 -14 -4 -34 -26 -51 -56 -24 -42 -38 -55
-93 -81 -84 -40 -97 -52 -105 -102 -8 -45 -22 -78 -38 -88 -5 -4 -38 1 -73 11
-35 9 -64 17 -65 16 0 0 -2 -16 -5 -34 -6 -50 -31 -81 -77 -93 -47 -12 -70 -4
-75 29 -4 25 -33 52 -39 36 -2 -7 -35 -44 -73 -82 -70 -71 -70 -71 -89 -51
-28 30 -30 51 -10 90 39 73 49 98 43 113 -10 26 -32 19 -93 -31 -32 -27 -71
-55 -87 -64 -21 -11 -34 -29 -44 -60 -33 -105 -55 -122 -170 -133 -140 -14
-175 -27 -211 -78 -45 -65 -76 -88 -119 -88 -22 0 -42 0 -45 -1 -70 -15 -108
-29 -200 -75 -101 -50 -220 -98 -270 -110 -21 -5 -86 -11 -196 -18 -49 -3 -97
-17 -175 -49 -132 -53 -166 -64 -224 -72 -27 -3 -111 -38 -210 -87 -266 -130
-350 -152 -408 -103 -35 29 -48 31 -56 9 -4 -12 -10 -13 -19 -6 -25 21 -142
-6 -185 -43 -17 -14 -38 -25 -48 -25 -32 1 -100 36 -177 92 -92 67 -112 78
-138 78 -13 0 -57 36 -120 100 -106 106 -139 129 -196 135 -47 4 -78 -26 -88
-86 -4 -24 -14 -58 -21 -75 -14 -30 -17 -31 -55 -24 -72 13 -151 2 -178 -25
-30 -29 -20 -46 37 -63 21 -7 47 -20 56 -31 17 -18 15 -23 -41 -104 -67 -99
-88 -112 -173 -104 -68 6 -137 45 -158 90 -15 31 -26 28 -47 -13 -24 -46 -36
-118 -37 -219 0 -92 8 -236 17 -281 24 -125 24 -497 1 -840 -3 -36 -8 -103
-11 -150 -3 -47 -8 -159 -10 -250 -6 -233 -15 -464 -20 -513 -23 -262 -33
-545 -25 -734 4 -80 -9 -99 -93 -141 -72 -36 -73 -39 -82 -126 -8 -69 -17 -97
-39 -116 -14 -10 -14 -15 -4 -22 18 -11 -8 -28 -43 -28 -25 0 -51 15 -123 73
-65 53 -124 15 -203 -132 -61 -114 -86 -140 -126 -134 -17 3 -56 18 -86 34
-30 17 -64 29 -76 27 -30 -4 -61 -76 -64 -150 -1 -26 -30 -48 -63 -48 -17 0
-54 -11 -82 -25 -28 -13 -73 -26 -101 -29 -66 -6 -85 -11 -139 -34 -75 -34
-167 -101 -252 -186 -82 -81 -114 -134 -114 -186 0 -28 -29 -74 -62 -98 -35
-26 -40 -48 -17 -87 27 -46 19 -80 -25 -106 -41 -24 -59 -62 -51 -112 7 -42
-8 -75 -54 -115 -14 -13 -39 -36 -56 -50 -40 -36 -144 -105 -182 -121 -36 -15
-44 -29 -49 -89 -2 -23 -15 -64 -28 -90 -33 -66 -68 -295 -69 -449 -1 -135 34
-180 163 -217 85 -23 118 -26 148 -10 15 8 42 17 60 20 29 6 39 2 70 -28 20
-20 61 -48 91 -64 63 -33 76 -59 60 -116 -14 -53 -7 -74 36 -123 19 -22 56
-74 81 -116 26 -42 64 -96 86 -120 54 -59 58 -68 58 -144 0 -39 6 -78 15 -95
l15 -29 -88 -88 c-98 -97 -117 -127 -127 -193 -10 -71 -35 -153 -53 -175 -9
-12 -38 -35 -63 -52 -26 -18 -70 -54 -98 -81 -45 -43 -51 -53 -46 -78 3 -16 6
-86 6 -156 0 -117 2 -129 19 -138 26 -14 25 -36 -1 -58 -24 -20 -59 -95 -59
-126 0 -11 11 -40 24 -63 14 -24 21 -45 16 -48 -5 -3 -7 -15 -5 -28 2 -12 9
-56 15 -97 7 -41 22 -96 35 -121 l23 -47 -55 -38 c-98 -68 -207 -206 -198
-253 2 -9 4 -21 4 -28 1 -6 23 -35 49 -65 27 -29 55 -64 62 -78 15 -28 15 -72
-1 -101 -18 -35 -11 -121 16 -199 59 -167 57 -207 -10 -299 -51 -69 -54 -88
-29 -191 15 -64 19 -126 10 -165 -29 -132 -85 -273 -125 -316 -12 -13 -32 -45
-46 -72 -19 -38 -22 -54 -14 -74 9 -25 32 -53 44 -53 15 0 124 -77 194 -137
42 -36 98 -84 124 -107 26 -22 68 -71 92 -107 24 -37 74 -92 110 -123 75 -64
105 -97 128 -142 16 -30 15 -32 -3 -37 -11 -3 -20 -12 -20 -21 0 -19 89 -78
145 -96 90 -28 128 -71 128 -144 l0 -31 61 -1 c53 -1 217 -48 378 -109 7 -3
26 6 42 20 30 26 47 23 88 -13 16 -14 22 -13 58 3 45 20 77 17 163 -15 78 -29
98 -62 137 -223 43 -184 75 -238 162 -279 35 -17 66 -42 89 -71 52 -69 88 -84
249 -102 83 -9 186 -38 200 -55 22 -26 133 -100 165 -110 22 -7 58 -25 80 -41
22 -15 65 -37 96 -49 83 -30 167 -89 265 -182 123 -117 126 -123 105 -206 -9
-37 -16 -74 -15 -82 0 -8 2 -22 3 -30 1 -8 17 -32 35 -53 36 -39 73 -108 81
-148 3 -13 8 -44 11 -69 11 -82 41 -160 83 -215 45 -60 238 -224 314 -268 26
-15 47 -31 47 -35 0 -21 60 -42 101 -36 63 9 91 -17 118 -106 18 -57 28 -74
59 -96 127 -93 188 -144 280 -233 56 -56 121 -113 144 -127 55 -35 173 -78
300 -109 57 -14 121 -33 143 -42 101 -43 209 -155 302 -313 56 -94 191 -290
213 -310 14 -13 81 -110 108 -160 40 -71 58 -127 77 -233 11 -58 47 -137 77
-165 27 -27 30 -35 25 -74 -10 -74 -28 -147 -58 -228 -42 -116 -54 -222 -36
-332 18 -119 19 -139 6 -171 -8 -18 -14 -39 -14 -47 -1 -26 26 -73 75 -130 69
-81 80 -101 80 -140 0 -29 -8 -44 -40 -75 -22 -21 -40 -46 -40 -55 0 -20 27
-59 76 -112 50 -53 63 -90 60 -165 -4 -79 -12 -102 -52 -143 -32 -34 -33 -37
-23 -75 6 -22 28 -74 49 -115 77 -151 89 -212 54 -279 -17 -32 -17 -79 -1
-107 21 -37 68 -68 197 -131 69 -33 138 -73 154 -89 35 -36 68 -100 97 -190
22 -68 65 -124 95 -124 18 0 18 -12 1 -53 -17 -40 -64 -88 -150 -157 -37 -28
-75 -64 -86 -78 -20 -29 -71 -143 -76 -174 -2 -10 -16 -45 -30 -77 -22 -47
-36 -65 -75 -89 -46 -29 -49 -33 -55 -86 -4 -31 -4 -93 -1 -139 4 -45 9 -116
11 -157 3 -41 7 -86 10 -100 3 -14 7 -37 10 -53 6 -33 22 -93 64 -243 17 -61
32 -128 32 -150 1 -42 -13 -88 -31 -99 -7 -4 -2 -15 14 -30 22 -21 25 -30 24
-92 -1 -37 4 -78 10 -90 7 -13 38 -41 68 -64 101 -74 140 -126 149 -197 3 -20
7 -95 9 -167 4 -132 10 -158 66 -277 12 -25 11 -29 -10 -46 l-22 -18 27 -52
c23 -43 33 -53 66 -62 30 -8 46 -22 71 -60 27 -41 35 -47 50 -39 10 6 27 7 37
4 29 -9 111 -95 111 -116 0 -26 28 -38 127 -53 150 -22 591 -163 633 -202 17
-15 65 -33 145 -54 164 -42 174 -53 210 -245 2 -11 34 -67 71 -124 108 -168
147 -270 118 -308 -7 -10 -14 -21 -14 -24 0 -3 289 -6 643 -7 599 -1 1753 -8
2787 -17 2293 -20 4104 -24 4645 -11 465 11 882 23 1115 31 250 9 708 22 1065
30 99 2 313 5 475 5 162 1 303 4 313 7 23 6 22 27 -7 76 -35 61 -40 100 -53
367 -15 334 -10 374 79 563 l51 108 2 148 c2 131 5 154 24 195 13 25 27 44 31
41 5 -3 10 1 13 7 2 7 -8 20 -23 28 -73 40 -153 140 -227 285 -52 102 -113
248 -113 273 0 10 9 47 21 82 15 47 21 92 22 165 1 123 -14 155 -110 242 -64
57 -133 138 -133 154 0 5 7 9 15 9 12 0 11 4 -5 20 -12 12 -18 29 -16 42 3 13
5 27 5 31 1 4 15 21 31 37 17 17 27 30 21 30 -5 0 -11 6 -14 13 -3 9 3 13 16
13 24 -1 50 57 61 133 6 44 6 45 -55 101 l-61 57 1 74 c1 41 4 90 6 109 7 56
7 232 0 273 -7 44 -31 115 -44 131 -21 28 -43 106 -42 152 0 32 13 87 36 150
34 95 39 120 50 284 8 128 42 272 68 294 8 6 25 29 38 51 13 22 29 46 37 54
27 28 44 62 49 98 6 42 34 108 72 168 42 65 65 123 78 190 2 11 5 90 8 175 2
85 7 177 10 204 7 56 51 166 95 237 62 102 104 186 152 307 57 144 63 199 31
292 -17 48 -20 72 -14 108 0 5 13 14 28 21 l28 13 -28 14 c-23 12 -26 18 -17
34 10 19 14 57 11 111 0 16 -19 47 -47 78 -25 27 -49 65 -55 83 -8 30 -6 259
6 533 2 61 4 122 5 138 0 21 8 31 34 44 37 17 48 45 61 153 3 25 8 56 10 70 3
14 7 39 10 55 2 17 16 68 31 115 65 212 67 223 79 305 15 104 18 122 32 148
20 40 67 81 148 129 39 23 87 54 108 70 21 17 37 24 37 17 0 -7 11 9 25 37 14
27 45 72 69 99 125 139 141 283 54 474 -109 239 -113 299 -37 535 23 75 42
154 44 194 10 141 16 196 27 241 13 56 35 101 49 101 6 0 6 8 -2 21 -10 19 -6
116 6 179 2 8 6 31 9 50 4 19 18 82 32 140 14 58 28 112 29 120 17 71 62 162
115 230 88 113 118 168 144 260 8 30 45 102 82 160 91 142 113 194 120 276 4
45 18 98 40 154 40 96 52 167 35 198 -9 18 -9 21 2 16 10 -3 34 25 73 83 32
48 65 94 71 101 7 7 13 17 13 22 0 15 42 55 110 104 36 26 80 64 97 84 35 39
36 60 7 130 -26 64 -25 90 6 112 16 11 33 20 39 20 6 0 20 9 31 20 12 12 20
15 20 8 0 -7 7 -4 16 7 18 24 11 59 -23 120 -13 24 -25 57 -25 73 -2 52 91
221 158 291 57 57 73 88 80 148 8 77 25 131 42 138 17 6 65 -22 57 -34 -3 -5
2 -12 11 -15 11 -4 15 -14 12 -31 -7 -33 7 -32 21 3 23 56 21 72 -13 110 -44
49 -57 75 -46 92 8 12 16 11 52 -8 24 -12 57 -33 74 -47 l31 -25 -2 27 c-3 44
5 57 22 36 13 -16 13 -16 3 4 -6 13 -8 45 -5 71 6 56 -12 121 -24 88 -6 -15
-15 -6 -54 50 -25 38 -49 81 -53 97 -5 24 -3 27 19 27 16 0 40 -14 65 -39 41
-41 70 -55 94 -46 15 6 16 21 4 100 -3 17 -8 53 -11 80 -4 28 -8 61 -11 75 -2
14 -7 63 -10 109 -5 63 -4 82 5 77 8 -6 10 -1 6 17 -5 20 0 29 24 46 l30 22
28 -43 c26 -41 58 -78 66 -78 3 0 8 10 12 23 3 13 8 17 11 10 4 -9 10 -10 24
-1 14 9 16 17 9 35 -5 13 -7 38 -5 56 3 18 5 36 5 40 1 5 5 6 10 3 5 -3 11 1
15 9 3 9 0 15 -9 15 -17 0 -17 -4 -19 123 -1 90 -3 100 -24 117 -38 31 -106
18 -158 -30 -24 -22 -49 -37 -56 -34 -7 2 -24 20 -38 39 -39 54 -56 46 -69
-30 -7 -36 -16 -76 -20 -88 -7 -17 -4 -29 11 -47 28 -34 3 -45 -57 -24 -64 21
-72 12 -102 -106 -9 -37 -10 -96 0 -134 19 -81 14 -89 -72 -107 -89 -18 -104
-35 -115 -132 -7 -56 -32 -110 -49 -104 -7 2 -16 20 -21 39 -8 31 -14 37 -43
42 -110 20 -100 21 -123 -15 -17 -27 -20 -46 -18 -96 4 -55 2 -63 -14 -63 -25
0 -35 -48 -37 -191 -1 -32 -9 -58 -27 -84 -14 -21 -36 -65 -48 -99 -15 -39
-29 -62 -41 -65 -12 -2 -16 2 -13 11 4 9 -1 14 -14 15 -15 2 -17 -1 -8 -12 6
-7 7 -15 2 -17 -5 -1 -39 -40 -75 -85 -71 -89 -126 -193 -152 -288 -37 -138
-49 -173 -77 -222 -15 -28 -28 -55 -27 -60 6 -36 -3 -65 -26 -75 l-25 -11 26
-45 c75 -127 110 -231 85 -246 -6 -4 -9 -12 -6 -17 4 -5 1 -9 -5 -9 -6 0 -9
-8 -6 -17 3 -10 1 -25 -4 -33 -6 -9 -5 -20 2 -30 7 -8 2 -6 -10 5 -12 11 -24
38 -27 60 -10 71 -14 80 -47 102 -18 13 -48 37 -67 55 -22 20 -36 28 -39 20
-2 -7 -8 -12 -13 -12 -6 0 -5 8 1 20 25 47 -31 11 -80 -51 -22 -28 -40 -47
-40 -42 -1 4 -9 -8 -20 -27 -14 -25 -19 -29 -20 -16 0 17 -2 18 -17 4 -36 -30
-52 -29 -55 4 -2 17 -9 34 -17 36 -10 3 -12 -2 -8 -20 4 -15 -1 -36 -14 -57
-16 -27 -22 -31 -34 -21 -8 7 -12 16 -9 21 3 5 -1 9 -9 9 -7 0 -24 -24 -37
-52 -41 -95 -43 -99 -58 -93 -7 3 -21 5 -29 5 -14 0 -14 2 -2 18 21 25 49 78
49 92 0 15 -67 5 -135 -21 -79 -29 -132 -71 -140 -111 -4 -18 -16 -49 -25 -69
-24 -46 -125 -182 -179 -239 -51 -55 -123 -161 -145 -214 -12 -28 -15 -59 -12
-105 6 -98 -10 -164 -51 -206 -19 -19 -41 -35 -50 -35 -11 0 -13 -5 -8 -17 28
-68 5 -93 -93 -102 -76 -7 -96 -17 -164 -84 -30 -29 -65 -51 -98 -62 -53 -18
-101 -58 -127 -108 -21 -42 -65 -88 -92 -99 l-24 -9 21 -15 c39 -27 28 -78
-38 -176 -56 -83 -112 -85 -280 -11 -62 28 -57 25 -133 76 -35 23 -57 45 -57
56 0 10 17 30 40 45 22 14 40 34 41 44 2 55 43 185 64 202 13 10 12 15 -5 29
-10 9 -22 29 -26 44 -6 26 -5 28 20 21 23 -5 26 -3 26 21 0 16 -4 24 -11 19
-8 -5 -8 -1 0 14 6 11 11 41 11 67 0 36 21 105 33 105 1 0 2 -20 3 -44 0 -27
9 -56 23 -77 l22 -34 -5 44 c-3 24 -13 78 -22 120 -19 97 -17 185 8 234 20 39
95 121 138 150 18 12 24 25 22 46 -1 16 2 32 8 36 6 4 7 -1 3 -11 -10 -27 15
-7 31 24 7 15 17 45 21 67 11 51 9 44 24 90 8 22 19 47 26 55 8 8 16 27 20 41
4 14 29 53 57 87 28 33 88 123 134 199 l82 138 -23 20 c-43 37 -55 97 -34 172
13 50 45 82 85 87 63 8 214 57 241 79 7 5 20 7 28 3 9 -3 13 -2 10 3 -3 5 -1
12 5 16 5 3 10 -1 10 -9 0 -13 4 -12 20 4 11 11 28 21 38 22 26 2 35 4 57 11
17 5 67 13 140 22 11 1 40 3 65 4 40 1 43 3 28 15 -10 7 -18 16 -18 20 0 12
34 6 52 -11 17 -15 18 -15 19 3 1 10 1 22 0 26 0 4 -4 49 -8 100 -18 240 9
329 115 383 19 9 35 15 36 13 1 -2 7 -14 13 -28 l12 -25 -2 28 c-1 15 -4 27
-7 27 -3 0 -11 12 -17 28 -17 38 -58 59 -148 77 -101 19 -130 37 -183 115 -24
36 -77 100 -118 142 -55 58 -83 97 -113 163 -46 96 -45 95 -30 95 32 0 73 93
85 188 7 53 24 114 38 137 7 11 25 63 40 115 31 105 39 120 68 120 14 0 18 5
14 18 -5 13 1 23 19 32 26 14 26 14 5 25 -23 13 -19 19 33 45 15 7 28 19 28
27 1 7 2 19 3 26 1 6 -7 30 -18 52 -11 22 -19 44 -18 49 4 13 -43 88 -78 124
-51 51 -69 45 -190 -71 -44 -43 -92 -82 -107 -88 -14 -5 -78 -9 -142 -8 -124
1 -144 -3 -177 -33 -21 -19 -22 -19 -35 -1 -8 11 -36 34 -64 53 -36 24 -45 27
-30 11 16 -18 17 -24 5 -31 -13 -8 -48 -6 -57 4 -6 6 32 70 51 86 13 10 12 14
-5 31 -26 26 -11 46 31 43 25 -2 33 4 46 29 16 30 16 55 -2 193 -8 61 -7 63
100 208 45 61 93 128 105 149 l23 38 -25 27 c-32 35 -47 78 -48 142 -1 42 -18
78 -53 107 -14 13 -26 26 -27 30 0 5 -2 16 -4 27 -3 16 -2 16 16 -3 26 -27 48
-27 88 3 58 43 86 94 86 156 0 68 -19 107 -86 180 -28 30 -57 67 -65 82 -29
55 5 113 95 160 25 13 46 29 49 36 2 6 -25 30 -60 52 -41 27 -62 47 -60 58 2
17 -21 35 -129 99 -52 30 -58 38 -81 100 l-25 67 -56 1 c-46 0 -58 4 -75 25
l-19 24 -7 -22 c-9 -26 -28 -28 -51 -6 -15 15 -17 15 -32 -6 -20 -29 -55 -22
-133 25 -32 19 -64 35 -71 35 -10 1 -8 4 4 11 25 15 21 61 -8 89 -36 34 -87
32 -165 -4 -49 -23 -79 -30 -125 -30 -73 0 -145 32 -163 72 -7 15 -23 44 -36
66 -13 21 -22 46 -21 55 2 9 4 22 4 30 1 7 40 53 87 101 135 138 152 174 87
185 -119 20 -141 29 -122 51 6 8 19 14 28 14 10 0 12 3 5 8 -20 14 -24 43 -10
77 17 40 15 69 -5 72 -70 9 -99 21 -179 74 -98 65 -147 89 -181 89 -17 0 -20
-5 -17 -25 3 -14 0 -32 -7 -41 -18 -26 -76 -2 -122 50 -67 76 -98 79 -170 16
-38 -33 -44 -32 -112 19 -19 14 -31 19 -27 11 5 -8 -5 0 -21 19 -26 30 -31 32
-43 19 -12 -13 -21 -8 -66 37 -65 66 -86 72 -117 35 -25 -30 -57 -50 -79 -50
-8 0 -27 13 -44 28 -16 16 -42 33 -59 40 -32 12 -131 26 -177 25 -16 0 -28 5
-29 11 -3 52 -28 100 -63 118 -23 13 -97 21 -77 9 21 -13 -47 -36 -139 -46
-30 -3 -72 -11 -92 -16 -42 -11 -82 -54 -75 -81 3 -11 0 -18 -9 -18 -8 0 -14
-5 -14 -11 0 -6 -6 -9 -14 -6 -8 3 -29 2 -47 -3 -19 -6 -38 -6 -49 0 -13 7
-20 6 -24 -6 -11 -28 -29 -9 -31 32 -3 72 -21 89 -145 128 -46 15 -96 36 -111
47 -27 19 -28 19 -34 -1 -4 -11 -17 -27 -30 -36 -21 -14 -27 -14 -57 1 -28 13
-30 14 -14 1 26 -21 15 -30 -24 -21 l-32 7 26 27 c21 22 24 30 14 38 -7 5 -19
8 -25 7 -7 -1 -17 -2 -22 -3 -5 0 -30 -17 -55 -36 l-45 -34 -49 47 c-56 54
-134 105 -317 203 -161 87 -266 150 -418 250 -143 94 -225 129 -382 163 -132
29 -328 73 -360 81 -11 3 -31 9 -45 15 -14 5 -187 51 -385 101 -198 50 -416
107 -485 126 -69 19 -132 36 -140 38 -8 1 -55 15 -105 30 -49 14 -128 37 -175
51 -47 14 -134 40 -195 59 -178 55 -512 151 -620 180 -55 14 -107 27 -115 30
-8 2 -96 24 -195 50 -183 46 -318 84 -390 110 -278 97 -391 144 -407 169 -5 6
1 18 11 27 18 15 17 19 -37 127 -32 62 -65 121 -75 132 -10 12 -17 26 -16 33
3 27 -2 46 -17 61 -8 9 -11 16 -5 16 6 0 2 9 -10 21 -15 15 -20 30 -17 50 4
25 2 28 -14 23 -19 -6 -20 0 -21 73 0 18 -3 32 -6 31 -18 -3 -38 15 -34 32 4
15 -3 21 -35 31 -44 13 -61 39 -63 92 -2 49 -14 82 -30 79 -8 -2 -49 -4 -91
-4 -83 -1 -99 6 -121 51 -11 22 -19 26 -55 24 -26 -1 -42 3 -42 10 0 6 -7 2
-16 -9 -15 -19 -15 -19 -10 1 3 11 8 34 11 50 4 17 9 39 12 50 3 11 2 17 -2
13 -4 -4 -21 1 -38 11 -35 20 -123 39 -97 22 12 -9 10 -11 -11 -11 -19 0 -28
-6 -33 -22 -5 -18 -8 -20 -15 -9 -7 11 -23 12 -71 7 -74 -9 -90 1 -90 53 0 48
-14 61 -66 61 -25 0 -44 5 -47 13 -3 7 -6 4 -6 -7 -1 -15 -6 -14 -36 12 -44
39 -159 107 -208 122 -24 8 -47 9 -65 3 -15 -5 -36 -9 -47 -8 -11 1 -30 2 -41
3 -23 2 -218 128 -294 190 -24 21 -66 58 -92 84 -26 26 -85 79 -130 118 -46
39 -116 107 -155 151 -40 44 -73 75 -73 69 0 -5 31 -43 69 -82 37 -40 74 -84
81 -97 l13 -24 -28 21 c-27 22 -93 30 -129 16 -26 -10 -18 -38 15 -58 l30 -18
-36 -19 c-20 -11 -75 -45 -123 -77 -48 -32 -121 -75 -163 -95 -41 -21 -97 -56
-124 -78 -36 -30 -50 -37 -56 -27 -7 10 -9 9 -9 -4 0 -10 -10 -20 -24 -24 -15
-3 -23 -11 -20 -19 7 -17 -33 -22 -103 -13 -40 5 -60 14 -85 38 -26 25 -30 33
-18 38 8 3 29 19 46 36 30 30 48 75 75 184 18 73 55 114 127 140 121 45 137
110 63 268 -23 49 -43 97 -45 108 -4 27 25 139 52 199 22 50 25 52 83 61 54 9
101 61 138 153 51 124 68 158 94 189 24 29 100 167 105 192 3 16 -22 65 -42
81 -13 11 -19 11 -32 0 -20 -16 -30 -2 -40 56 -3 22 -15 60 -27 85 -17 38 -21
42 -24 23 -3 -13 -8 -23 -12 -23 -4 0 -13 10 -19 23 -6 12 -11 16 -11 10 -1
-7 -12 -13 -26 -13 -17 0 -48 22 -99 70 -40 39 -75 70 -77 70 -3 0 -22 -12
-44 -27z m13086 -11109 c22 4 30 -2 52 -35 l27 -40 -78 41 c-42 23 -84 48 -92
56 -8 8 4 5 25 -6 24 -13 51 -19 66 -16z"/>
<path d="M10132 24991 c-19 -54 13 -194 53 -231 22 -21 55 -19 55 4 0 6 4 5 9
-3 8 -13 16 -12 53 4 48 22 59 32 51 52 -3 7 0 13 6 13 16 0 -45 109 -75 138
-14 12 -35 22 -47 22 -12 0 -31 7 -41 15 -31 23 -53 18 -64 -14z"/>
<path d="M10355 24643 c-27 -14 -53 -31 -57 -36 -11 -18 13 -38 41 -34 59 10
139 57 96 57 -8 0 -19 9 -23 19 -7 18 -9 18 -57 -6z"/>
<path d="M11074 24604 c-49 -25 -93 -49 -98 -54 -11 -11 60 -31 82 -23 9 4 31
17 48 30 17 13 36 23 43 23 15 0 61 45 61 60 0 21 -49 8 -136 -36z"/>
<path d="M10158 24510 c-65 -69 -84 -138 -50 -180 26 -32 53 -19 81 37 26 53
31 72 36 123 6 72 -12 77 -67 20z"/>
<path d="M10589 24521 c-25 -16 -72 -61 -104 -100 -69 -83 -114 -117 -172
-126 -50 -8 -69 -27 -78 -80 -10 -54 -21 -65 -63 -65 -19 0 -55 -10 -80 -22
-55 -28 -126 -94 -119 -111 3 -6 12 -29 21 -49 15 -34 15 -38 -2 -47 -16 -10
-16 -10 2 -11 11 0 78 31 150 69 192 101 247 122 285 111 20 -5 29 -5 26 1 -4
5 0 12 8 15 21 8 16 27 -21 68 -18 20 -32 42 -32 48 0 5 17 27 38 48 42 42 80
55 187 65 81 7 133 20 157 39 16 12 10 20 -61 94 -43 45 -83 82 -88 82 -5 0
-29 -13 -54 -29z"/>
<path d="M9937 23790 c46 -11 113 -67 113 -94 0 -13 6 -23 14 -23 18 0 15 13
-13 60 -27 44 -67 67 -113 66 l-33 -1 32 -8z"/>
<path d="M24633 17098 c0 -31 -6 -46 -23 -60 l-22 -18 34 0 c70 0 103 61 56
101 -33 30 -45 24 -45 -23z"/>
<path d="M24212 17073 c-39 -99 -58 -296 -38 -377 6 -25 31 -56 45 -56 11 0
29 42 26 61 -2 9 3 16 11 16 7 0 10 -5 7 -11 -4 -6 1 -5 10 3 28 22 63 1 71
-43 6 -33 9 -35 22 -21 21 21 50 19 75 -6 11 -11 23 -18 27 -15 3 3 2 6 -3 6
-4 0 -1 8 8 18 9 10 19 44 22 76 5 38 19 82 42 126 19 37 37 88 40 114 5 44 5
46 -21 46 -16 0 -26 6 -26 14 0 27 -55 34 -145 20 -42 -6 -98 -25 -109 -35
-17 -16 -23 -10 -18 20 4 29 -12 71 -27 71 -5 0 -13 -12 -19 -27z"/>
<path d="M24307 16635 c-6 -14 -10 -15 -22 -5 -8 7 -15 9 -14 4 0 -9 7 -19 66
-109 23 -34 31 -55 27 -72 -5 -18 -3 -22 10 -17 21 8 21 13 -10 81 -15 32 -32
76 -39 97 -9 30 -13 35 -18 21z"/>
<path d="M24148 16532 c-3 -10 -1 -28 3 -41 7 -17 15 -22 36 -19 41 5 44 42 4
62 -37 20 -38 20 -43 -2z"/>
<path d="M22750 15932 c0 -10 -10 -29 -22 -41 l-21 -23 -16 21 c-16 21 -16 21
-39 -13 -15 -21 -22 -45 -20 -63 3 -24 14 -34 86 -69 l83 -41 -5 26 c-3 14 -8
42 -11 61 -3 19 -10 50 -16 67 -11 36 -6 53 17 53 20 0 17 18 -5 30 -27 14
-31 13 -31 -8z"/>
<path d="M22475 14218 c28 -17 45 -18 45 -4 0 6 -15 13 -32 14 -30 2 -31 1
-13 -10z"/>
</g>
</svg>
