<svg xmlns="http://www.w3.org/2000/svg" viewBox="0 0 841.9 1190.6"><path fill-rule="evenodd" clip-rule="evenodd" d="M840.1 102l-2.4-.6-8.7 5.1-15.4 1.7-22-1.8-7.7 2.1 6.7 6.1-5.7 9.5-18 12.9-10.4 13.1-2.8 13.4 2.8 11.9 8.5 10.3 12.4 6.7 16.3 3.1 3.4 4.1-9.6 5.1-16.9 2.9-24.3.7-24.6 5.7-24.8 10.7-14.5 9.6-4.1 8.5-.7 12.4 3.2 30.2-1.9 11.7-10.6 21.5-14 28-16.6 17.6-3.1-2.4 2.7-8.6 13.8-28.1 2.1-11.9-1.3-6.3-4.8-.6-5.5 5.4-6.1 11.5-1.3 6.2 3.5 1-2.6 7.8-8.7 14.7-7.5 3-6.4-8.6.5-11.4 10.4-22.7-3.7-4.4 6.1-14.1 2.7-10.3-3.1-10.6 2.5-9.8 8.1-8.9-2.5-2.7-13 3.5-18.7 16.7-24.4 29.8-18.9 13-13.5-3.8-10.9 2.5-8.2 8.8-9 4.3-9.7-.2-5.9 10.4-2 21-9.6 12-28.6 7.1-5.6 5.4-.5 7.8 4.6 10.1.1 20.2-4.3 30.3-9.5 26.5-14.6 22.7-16.1 18.7-26.7 24.8-.5 4.9 13.1 19.3 5.5 14.4 2.7 28.6-.7 4.7-25.6 35.2-.4 5 27.5 59.2 24.4 42.5 2.8 4.5 7.3 17 13.5 33.2 6.9 33 .4 32.7-3.3 31.7-6.9 30.5-10.3 29.2-13.6 27.8-14.1 22-29 36.4-14.2 24.3-14.7 19.6-15.2 14.9-27.4 16.7-70.6 30.6-22.1 5.9-24.3 2.2-26.5-1.4-14.5-3.4-3.2-5.7-5.7-.6-7.7-3.8-9.7-6.5-10.8-11.7-11.7-24-12.6-36.3-11.2-21.6-9.7-7-8.8-10.9-7.9-14.8-3.9-33.3.1-51.9 2.6-35.3 5.2-18.8-1.5-14.3-8.1-9.9-5-12.3-1.9-14.8-4.2-10-6.6-5.3-1.5-7.4 3.7-9.4v-6.5l-3.6-3.5-.9-5.3 1.9-7-3-20.2.8-12.6 4.5-13.7L53 706.2l4.7-12.1 1.2-12.3 6.9-15.6L84.9 634l.5-7.4-6.6-14.6-1.5-10.8 1.4-14.4 6.1-17.8 10.7-21.2 14.2-16.9 17.6-12.7 5.8-14.4-6.1-16.1 2.2-23.8 10.5-31.6 11.7-23.7 12.9-15.8 8.9-15 4.8-14.3-2.1-6.4-9.6-6.8-9.4-9.9-15.6-2.2-19.3 6.6-2.7-.4-9.9.9-18.6 14.6L74.3 385l-12 10.4-16.3 7.1-12.1 7.9-7.9 8.7-10.4 1.9-12.7-4.9-2.4-12L8.3 385l11.9-18.4 24.4-30 .8-7.2 6-8.8 37.8-12.9 14.5-10.2 4.9-13 1.4-19.1 2.4-5.3 5.6-2.3 16.6-16 27.7-29.8 24.9-30.7 22-31.7 16.1-17.9 10.2-4 7.5-9.6 11.7-29.5 8.8-13.5 5.8-5.2 2.9 3.2-5.6 16.2v13.4l4.8 17.1 9.3 5.9 13.9-5.3 11.9-11.3 10-17.2 11.6-7.1 13.1 3 10.8-1.1 8.6-5.2 16.4-2.6 3 6.5-2 13.1-5.2 6.3-8.4-.5-9.6 6.9-10.8 14.3.4 11.3 11.6 8.4 5.8.5-.1-7.5 5.4-7.6 17.3-13.9 1.6-4.5 32.9-12.2 12.4-7.8 3.4-8.9 17.1-18.2 16.2-5.8 22.1-2.5 21.4 1.6 20.7 5.7 11.7-.1 2.8-5.9 17.7-4 32.5-2 23.9-8.4 15.4-14.8L656 21l23.9-.3 32.4 5.3 40.9 10.8 33.1 14.7L830 81l11.6 3-1.5 18zm-187.6 8.3l-11.9-3.9-8.8 9.6-9 21-1.1 12 6.7 3 8.8-1.3 10.9-5.6 4.3-9.9-2.3-22.5 2.4-2.4zm-144 155.3l-1.8 2.5 5.6 11.3 5.7 3.5 7.1.3 3.1-3.6-.9-7.6-4.8-4.8-14-1.6zm-224.7-66.5l-3-2.7-7.4 14.7 5.1 5.8 14.1.9 7.7-2.6 1.4-10.8-1.4-3.7-4.3-1.4-12.2-.2zm-31.6 28.8l-10 6.1-8.7 14-11.4 9-14.1 4-9.7 9.3-5.3 14.5-9.3 13-20.8 19.8-1.7 5.5 1.2 7.7 4.2 9.9 7.1 6.5 10 3.2 9.1-2.1 23.7-22.4 2.2-4.9-3-2.4 3.3-8.5 9.6-14.7 7.1-7.1 4.5.4 4.7-2.9 4.9-6.3-.7-5.8-6.2-5.3.4-2.2 7 .9 2.6-5.5-1.8-11.8 3.1-4.8 8 2.2 4.7-3.3 1.5-8.8-4.9-5.3-11.3-1.9z"/></svg>