<svg xmlns="http://www.w3.org/2000/svg" viewBox="0 0 841.9 1190.6"><path fill-rule="evenodd" clip-rule="evenodd" d="M832 725.2l9.6-1-1.5 2.9-3.1.3-4 1.3-4.7 2.9-6.6 3-6.8-.8-4.7-4.2-6.8-.9-8.8 2.4-7.8-.1-6.8-2.7-13-1.3-1.6-2 .3-2.1 2-2.2 1.2-5.2.2-8.2 1.8-5.8 3.3-3.4-5.1-1.4-13.4.6-15.4 2.8-17.4 5-18.9 1.7-20.4-1.5-15.4.2-17.1 2.5-3-.8-10.8 3.3-18.6 7.4-13.9 6.9-11.5 7.7-1.8.1-2.7-1.7-5.8-2.4-6.2-.1-6.6 2.2-6.7-1.4-6.8-5.1-6.2-1.4-5.6 2.2-9.2 1-20.7-.9-2.1-1.6-1.8-5.5-2.2-2.4-3.9-1.7-6.3-6.1-13.9-15.5-3.8-1.8-11.3-4.8-10.8-2.1-27.3-3-5.9-2.1-3.5.4-18.1 8.4-.8 1.8-1.1 1.8-3 2.9-2.4 1.3-1.5-1.4-1.4-2.4.3-5.4 1.9-8.3-1.1-5.4-4.2-2.5-1.8-3 .6-3.5-3-2.8-6.6-2.1-3.1-2.8.5-3.4-.6-2.3-1.8-1.3-7.1 2.7-12.4 6.6-8.4 5.9-4.4 5.2-6.6 3-8.8.7-7 2.2-12.4 7.6-9.3 3.9-15.4 2.9-21.5 1.8-17.9 5-14.4 8.1-17.4 6.9-20.3 5.6-13.8 2-7.3-1.7-8.7-3.5-13-6.2-1.9.6 1 1.3-.3 1.1-2.4 1.8-16.6 4.6-2.2-1.7 6.2-6.3 2.4-4.7-.2-4.3 2.8-5.3 5.7-6.3 2.1-4.3-1.5-2.2-6.3-3.7-5.1-.3-6.4 1.2-19.6 9.3-2-.7-6.3-1.5-1.5.3-15.1 8.1-15.4 4.8-36.5 6.9-9.2.8-7.2-.5-9.3-4-3.7-2.8.3-3 4.3-3.2L50.5 668l28.1-17.8 46.5-33.5 12-6.7 27-11.1 43.4-10.7 21.4-5.9 18.5-6.5 11.8-5 5.1-3.5 4.1-1.6 3.2.2 6.2-2.3 10.6-8.6 1.2-.7 10.1-2.4 3.3-4.1 2-4.9 4.8-8.2 3.3-3.4.8-3.7-1.7-4 .5-3.8 2.6-3.6 12.4-5.1 33.8-9.3 1.2 1.2-5.9 7.1-6.3 13.5-2.2.4-2 1.7-1.8 3 4.8-.2 11.4-3.4 5.3-1.7 1.3-3.3 1.8-6.7 2.4-3.7 3.1-.7 2.1-3.2 1-5.7 2.5-3.4 4-1.1 1.7-2-.3-2.8 1-7.5.8-3.5 3.5-5.1 4.9-1.6 6.8.3 4.6 2.6 2.5 4.9.7 4-1.2 3.2-6.5 5.8-18.7 14-2 3.9 1.6 2 1.1 2.9 2.2.4 4.1-2.6 1.8-2.3-.5-2 1.5-2.6 3.5-3.2 2.7-1 2 1.3 3.3-.6 4.7-2.4 8.4-1.2 1.6-.1 10.3-9.3 3.2-5.4V481l-4.2-4.9-8.4-5-2.4-5.4-.2-2.7-1.6-3.4 1.7-1.3 5.1.9 4.3-.5 3.5-1.8 6.3-.4 5.1.3 6.2 4.3 22.2 4.2 8.2 2.2 10.1 2.3 2.6.8 1.7 2.5 3.8 1.1 5.8-.4 6.1.8 10.4 3.8 9.5 2.6 15.1-.3 8.3-1.1 13.1 1.8h7.3l7.4-3 6.4-.8 5.4 1.4 2.3 1.9 4.4 2.7 13.2-1.3 2.9.7 3.9 2.9.6 1.9 2.1 2.9 5 5.5 1.2 1.9 3.4 2.3 2.8 5.4 2.1 8.4 2.4 5.2 2.6 1.9 1.1 2.2 2.4 8.8 5.9 10.1 8.9 9.9 11.8 9.7 14.7 6.4 17.7 3.2 15.7.7 13.8-1.8 18.3-.9 22.8-.1 11.8 1.1.8 2.4-2.2 3.4-5.2 4.5-.6 3-.2 3.8-4.2 5.1-2.2 3.1.7 2.1-1.2 2.8-3.1 3.6 1.8 4.8 6.7 6 8.2 4.8 9.7 3.7 6 3.8 2.4 3.9 2.7 2.2 3 .4 2.7 1.8 2.4 3.3-2.6 5.7-7.6 8.2-3.4 5.3.8 2.4-6.4 9-.4 3.5 2.7 2.5 10.3 3.5 3.3 2.9 2.7.4 2-2 4.1-.9 6.1.2 5.8 1.4 5.4 2.7 1.9 2.8-1.6 2.9-2.8 1-8.3-.4-4.7 1.5-2.8 3.1-.8 8.2 2.3 3.5h1.3l1.9-1.7 2.4-3.3 2.6-.4 2.8 2.6-3 5.3-8.8 8-2.3 2.5v3.6l7.4 6.5 2.7-.6 1.8-1.6 2.9-2.2zm-685.2-48l-1.1 1.5.6 1.5 4.1 1.8 1.6-.8-.6-1.5-2.7-2.2-1.9-.3zm11.1 14.9l7-3-.8-1.5-2.5-.1-14.4 6.1-3.2 2.4-1 2 2.6.3 6.2-1.5 3.3-1.6.3-1.7 2.5-1.4zm11.6-9.9l1.3-3.8-.8-.9-3.6.6-8.1 2.2-.1 1.6 7.8.9 3.5-.6zm14.8-13.5v-2.2l-1.3-.8-2.7.5-1.8 1.9-.9 3.3 1.3.8 3.5-1.7 1.9-1.8zm255-194.3l-3.2 3.1 1.2 7.3 2.1 2.6 2.8-.1 3.5-2.8 6.2-1.5 8.9-.2 4.7-1 .4-1.9 3.3-1.1 1.3-1.7.6-3.3-5.2-1.9-11-.6-8.8.8-6.8 2.3zM346.7 572l31-11.5 3.4-3.2-.4-1.7 1.7-2.5 10.4-6.1-1.6-.9-9.7 1.9-18.1 6-42.4 16.3-5 2.6-.8 1.3h3.4v1.6l-3.3 3.2.4 2.2 4.2 1.2 8.1-1.1 12.1-3.3 4.3-1.6.7-.9-3.9-.5.5-1.8 5-1.2zm121.4 56.9l5.4-2.4-5.7-3.6-9.2-1.8H446l-12.6 1.3-22.8 5.6-8 3.5-18.2 12.6-5.1 6-.7 4.7 4.6 3.3 15.1 2.3.8-1.5-.7-.7-2.2-.9 4-4.3 1.2 1.7-.4 4.8-3.2 3.5-3.3 2.4v3.2l3.2 4 4-.9 4.8-5.9 13.2-9.3-.4-2.1 2-3.5 22.4-11.9 4.4-3.7-.9-1.4-4.8-2 .7-.7 25-2.3zM479 483.8l7.4-.7-.5-2.6-4.4-4.4-3.8-2.2-3.2.1-1.8.6-.5 1.1 2.3 3.3.1 1.7-1.5 1.5 1.4 1 4.5.6zM704.9 593l1.1-1.6-4.9-2.7-13.4-2.7-6.8.2-6 1.5-5.2 2.7-2.1 2.1.9 1.5 9.1 1.6 20.9-1.5 6.4-1.1z"/></svg>